<?xml version="1.0" encoding="UTF-8"?>
<svg id="Layer_2" data-name="Layer 2" xmlns="http://www.w3.org/2000/svg" viewBox="0 0 156.41 34.66">
  <defs>
    <style>
      .cls-1 {
        fill: #403d39;
      }

      .cls-1, .cls-2, .cls-3 {
        stroke-width: 0px;
      }

      .cls-2 {
        fill: #eb5e28;
      }

      .cls-3 {
        fill: #252422;
      }
    </style>
  </defs>
  <g id="Layer_1-2" data-name="Layer 1">
    <g>
      <g>
        <path class="cls-3" d="m38.94,27.54V3.56h5.39v23.98h-5.39Zm4.73,0v-4.73h10.05v4.73h-10.05Z"/>
        <path class="cls-3" d="m57.04,27.14l-5.55-17.6h5.32l5.22,17.6h-4.99Zm-3.48,7.52v-4.47h3.74c.57,0,1.05-.07,1.45-.21.39-.14.71-.38.95-.71.24-.33.44-.78.59-1.35l4.4-18.39h5.03l-5.03,19.44c-.35,1.4-.84,2.52-1.46,3.37-.62.84-1.46,1.44-2.5,1.79-1.04.35-2.36.53-3.96.53h-3.22Zm5.65-7.52v-4.11h10.68v4.11h-10.68Z"/>
        <path class="cls-3" d="m75.37,27.54l-5.39-18h5.42l5.06,18h-5.09Zm1.61,0v-4.37h5.32v4.37h-5.32Zm1.97,0l4.34-18h5.09l-4.66,18h-4.76Z"/>
        <path class="cls-1" d="m69.88,7.43v-3.88h25.15v3.88h-25.15Zm19.86,20.1V3.56h5.29v23.98h-5.29Z"/>
        <path class="cls-1" d="m106.44,28.19c-1.53,0-2.89-.26-4.06-.79-1.17-.53-2.15-1.24-2.94-2.13s-1.39-1.9-1.79-3.01c-.41-1.11-.61-2.24-.61-3.4v-.66c0-1.2.2-2.36.61-3.47.41-1.11,1-2.1,1.77-2.97.78-.88,1.74-1.57,2.89-2.09,1.15-.51,2.46-.77,3.92-.77,1.93,0,3.55.43,4.88,1.3,1.32.87,2.34,1.99,3.04,3.38.7,1.39,1.05,2.91,1.05,4.55v1.77h-15.93v-2.99h12.74l-1.74,1.41c0-1.09-.15-2.02-.44-2.78-.3-.76-.74-1.34-1.35-1.74-.6-.41-1.35-.61-2.25-.61s-1.7.2-2.33.61c-.64.41-1.12,1.01-1.44,1.81-.33.8-.49,1.78-.49,2.94,0,1.07.15,2.01.46,2.81.31.8.79,1.42,1.45,1.86s1.51.66,2.56.66c.96,0,1.75-.19,2.36-.56.61-.37,1.03-.83,1.25-1.38h4.83c-.26,1.2-.78,2.28-1.54,3.22-.77.94-1.73,1.68-2.89,2.22-1.16.54-2.5.8-4.01.8Z"/>
        <path class="cls-1" d="m117.14,27.54V9.54h4.2v7.72h-.3c0-1.84.23-3.37.71-4.6.47-1.23,1.19-2.15,2.15-2.76.96-.61,2.13-.92,3.51-.92h.23c2.1,0,3.71.68,4.81,2.05,1.11,1.37,1.66,3.44,1.66,6.22v10.28h-5.29v-10.58c0-.96-.28-1.75-.84-2.35-.56-.6-1.32-.9-2.28-.9s-1.78.31-2.38.92c-.6.61-.9,1.42-.9,2.43v10.48h-5.29Z"/>
        <path class="cls-1" d="m143.8,28.13c-2.56,0-4.57-.53-6.01-1.59-1.45-1.06-2.21-2.55-2.3-4.45h4.66c.09.57.43,1.08,1.03,1.53.6.45,1.5.67,2.71.67.92,0,1.68-.16,2.28-.48.6-.32.9-.77.9-1.36,0-.53-.24-.95-.71-1.26-.47-.32-1.29-.53-2.45-.64l-1.41-.16c-2.17-.22-3.79-.82-4.88-1.79-1.08-.97-1.63-2.24-1.63-3.79,0-1.27.32-2.33.95-3.19.63-.85,1.52-1.5,2.64-1.94,1.13-.44,2.41-.66,3.86-.66,2.32,0,4.19.51,5.62,1.53,1.42,1.02,2.17,2.49,2.23,4.42h-4.7c-.07-.57-.37-1.06-.9-1.48-.54-.42-1.31-.62-2.32-.62-.81,0-1.46.15-1.94.46-.48.31-.72.72-.72,1.25s.21.89.62,1.15c.42.26,1.09.45,2.04.56l1.41.13c2.21.24,3.93.85,5.16,1.84,1.23.99,1.84,2.31,1.84,3.97,0,1.2-.33,2.25-.99,3.14-.66.89-1.59,1.57-2.79,2.05-1.2.48-2.62.72-4.24.72Z"/>
      </g>
      <circle class="cls-2" cx="153.51" cy="6.49" r="2.9"/>
      <path class="cls-3" d="m0,0v31.01h31.01V0H0Zm10.59,28.6H2.41v-8.18h1.56v6.62h6.62v1.56Zm7.61-10.84l-1.99,8.42-4.46-8.49-4.46-8.49,9.31,2.31,9.31,2.31-7.7,3.94ZM28.6,3.97v6.62h-1.56V3.97h-6.62v-1.56h8.18v1.56Z"/>
    </g>
  </g>
</svg>